<mxfile host="65bd71144e">
    <diagram id="0tbcOFKwYmVJheq43jTC" name="Page-1">
        <mxGraphModel dx="1386" dy="1903" grid="1" gridSize="10" guides="1" tooltips="1" connect="1" arrows="1" fold="1" page="1" pageScale="1" pageWidth="850" pageHeight="1100" math="0" shadow="0">
            <root>
                <mxCell id="0"/>
                <mxCell id="1" parent="0"/>
                <mxCell id="9" style="edgeStyle=none;html=1;entryX=0.998;entryY=0.656;entryDx=0;entryDy=0;entryPerimeter=0;" edge="1" parent="1" source="2" target="6">
                    <mxGeometry relative="1" as="geometry">
                        <Array as="points">
                            <mxPoint x="280" y="520"/>
                        </Array>
                    </mxGeometry>
                </mxCell>
                <mxCell id="14" style="edgeStyle=none;html=1;" edge="1" parent="1" source="2" target="11">
                    <mxGeometry relative="1" as="geometry"/>
                </mxCell>
                <mxCell id="2" value="server" style="rounded=1;whiteSpace=wrap;html=1;" vertex="1" parent="1">
                    <mxGeometry x="220" y="140" width="120" height="60" as="geometry"/>
                </mxCell>
                <mxCell id="10" style="edgeStyle=none;html=1;entryX=0;entryY=0.5;entryDx=0;entryDy=0;" edge="1" parent="1" source="3" target="2">
                    <mxGeometry relative="1" as="geometry">
                        <Array as="points">
                            <mxPoint x="120" y="170"/>
                        </Array>
                    </mxGeometry>
                </mxCell>
                <mxCell id="3" value="databases" style="swimlane;fontStyle=0;childLayout=stackLayout;horizontal=1;startSize=30;horizontalStack=0;resizeParent=1;resizeParentMax=0;resizeLast=0;collapsible=1;marginBottom=0;whiteSpace=wrap;html=1;" vertex="1" parent="1">
                    <mxGeometry x="50" y="410" width="140" height="180" as="geometry"/>
                </mxCell>
                <mxCell id="4" value="contract" style="text;strokeColor=none;fillColor=none;align=left;verticalAlign=middle;spacingLeft=4;spacingRight=4;overflow=hidden;points=[[0,0.5],[1,0.5]];portConstraint=eastwest;rotatable=0;whiteSpace=wrap;html=1;" vertex="1" parent="3">
                    <mxGeometry y="30" width="140" height="30" as="geometry"/>
                </mxCell>
                <mxCell id="5" value="user" style="text;strokeColor=none;fillColor=none;align=left;verticalAlign=middle;spacingLeft=4;spacingRight=4;overflow=hidden;points=[[0,0.5],[1,0.5]];portConstraint=eastwest;rotatable=0;whiteSpace=wrap;html=1;" vertex="1" parent="3">
                    <mxGeometry y="60" width="140" height="30" as="geometry"/>
                </mxCell>
                <mxCell id="6" value="messages" style="text;strokeColor=none;fillColor=none;align=left;verticalAlign=middle;spacingLeft=4;spacingRight=4;overflow=hidden;points=[[0,0.5],[1,0.5]];portConstraint=eastwest;rotatable=0;whiteSpace=wrap;html=1;" vertex="1" parent="3">
                    <mxGeometry y="90" width="140" height="30" as="geometry"/>
                </mxCell>
                <mxCell id="7" value="rooms" style="text;strokeColor=none;fillColor=none;align=left;verticalAlign=middle;spacingLeft=4;spacingRight=4;overflow=hidden;points=[[0,0.5],[1,0.5]];portConstraint=eastwest;rotatable=0;whiteSpace=wrap;html=1;" vertex="1" parent="3">
                    <mxGeometry y="120" width="140" height="30" as="geometry"/>
                </mxCell>
                <mxCell id="8" value="wallets" style="text;strokeColor=none;fillColor=none;align=left;verticalAlign=middle;spacingLeft=4;spacingRight=4;overflow=hidden;points=[[0,0.5],[1,0.5]];portConstraint=eastwest;rotatable=0;whiteSpace=wrap;html=1;" vertex="1" parent="3">
                    <mxGeometry y="150" width="140" height="30" as="geometry"/>
                </mxCell>
                <mxCell id="15" style="edgeStyle=none;html=1;entryX=0.5;entryY=0;entryDx=0;entryDy=0;" edge="1" parent="1" source="11" target="2">
                    <mxGeometry relative="1" as="geometry">
                        <Array as="points">
                            <mxPoint x="700" y="40"/>
                            <mxPoint x="280" y="40"/>
                        </Array>
                    </mxGeometry>
                </mxCell>
                <mxCell id="11" value="users" style="rounded=1;whiteSpace=wrap;html=1;" vertex="1" parent="1">
                    <mxGeometry x="640" y="140" width="120" height="60" as="geometry"/>
                </mxCell>
                <mxCell id="16" value="&lt;font style=&quot;font-size: 30px;&quot;&gt;CALL API FLOW&lt;/font&gt;" style="text;html=1;strokeColor=none;fillColor=none;align=center;verticalAlign=middle;whiteSpace=wrap;rounded=0;" vertex="1" parent="1">
                    <mxGeometry x="240" y="-70" width="300" height="110" as="geometry"/>
                </mxCell>
                <mxCell id="17" value="add contacts" style="text;html=1;strokeColor=none;fillColor=none;align=center;verticalAlign=middle;whiteSpace=wrap;rounded=0;fontSize=30;" vertex="1" parent="1">
                    <mxGeometry x="1000" y="550" width="230" height="30" as="geometry"/>
                </mxCell>
                <mxCell id="19" style="edgeStyle=none;html=1;fontSize=30;" edge="1" parent="1" source="18">
                    <mxGeometry relative="1" as="geometry">
                        <mxPoint x="1250" y="760" as="targetPoint"/>
                    </mxGeometry>
                </mxCell>
                <mxCell id="33" style="edgeStyle=none;html=1;entryX=0.5;entryY=0;entryDx=0;entryDy=0;fontSize=15;" edge="1" parent="1" source="18" target="20">
                    <mxGeometry relative="1" as="geometry">
                        <Array as="points">
                            <mxPoint x="910" y="650"/>
                            <mxPoint x="1310" y="650"/>
                        </Array>
                    </mxGeometry>
                </mxCell>
                <mxCell id="18" value="user" style="rounded=1;whiteSpace=wrap;html=1;fontSize=30;" vertex="1" parent="1">
                    <mxGeometry x="850" y="730" width="120" height="60" as="geometry"/>
                </mxCell>
                <mxCell id="27" style="edgeStyle=none;html=1;entryX=0.5;entryY=0;entryDx=0;entryDy=0;fontSize=30;" edge="1" parent="1" source="20" target="26">
                    <mxGeometry relative="1" as="geometry"/>
                </mxCell>
                <mxCell id="35" style="edgeStyle=none;html=1;entryX=1;entryY=0.5;entryDx=0;entryDy=0;fontSize=15;" edge="1" parent="1" source="20" target="26">
                    <mxGeometry relative="1" as="geometry">
                        <Array as="points">
                            <mxPoint x="1450" y="760"/>
                            <mxPoint x="1450" y="980"/>
                        </Array>
                    </mxGeometry>
                </mxCell>
                <mxCell id="20" value="server" style="rounded=1;whiteSpace=wrap;html=1;fontSize=30;" vertex="1" parent="1">
                    <mxGeometry x="1250" y="730" width="120" height="60" as="geometry"/>
                </mxCell>
                <mxCell id="26" value="DB" style="rounded=1;whiteSpace=wrap;html=1;fontSize=30;" vertex="1" parent="1">
                    <mxGeometry x="1250" y="950" width="120" height="60" as="geometry"/>
                </mxCell>
                <mxCell id="28" value="&lt;font style=&quot;font-size: 15px;&quot;&gt;save request&lt;/font&gt;" style="text;html=1;strokeColor=none;fillColor=none;align=center;verticalAlign=middle;whiteSpace=wrap;rounded=0;fontSize=30;" vertex="1" parent="1">
                    <mxGeometry x="1160" y="850" width="200" height="30" as="geometry"/>
                </mxCell>
                <mxCell id="30" value="&lt;span style=&quot;font-size: 15px;&quot;&gt;user_id add contacts&lt;/span&gt;" style="text;html=1;strokeColor=none;fillColor=none;align=center;verticalAlign=middle;whiteSpace=wrap;rounded=0;fontSize=30;" vertex="1" parent="1">
                    <mxGeometry x="1020" y="720" width="200" height="30" as="geometry"/>
                </mxCell>
                <mxCell id="34" value="&lt;span style=&quot;font-size: 15px;&quot;&gt;accept or deny the request&lt;/span&gt;" style="text;html=1;strokeColor=none;fillColor=none;align=center;verticalAlign=middle;whiteSpace=wrap;rounded=0;fontSize=30;" vertex="1" parent="1">
                    <mxGeometry x="1010" y="610" width="200" height="30" as="geometry"/>
                </mxCell>
                <mxCell id="36" value="&lt;span style=&quot;font-size: 15px;&quot;&gt;email, password (delete verify code)&lt;/span&gt;" style="text;html=1;strokeColor=none;fillColor=none;align=center;verticalAlign=middle;whiteSpace=wrap;rounded=0;fontSize=30;" vertex="1" parent="1">
                    <mxGeometry x="1450" y="850" width="200" height="30" as="geometry"/>
                </mxCell>
                <mxCell id="37" value="register account" style="text;html=1;strokeColor=none;fillColor=none;align=center;verticalAlign=middle;whiteSpace=wrap;rounded=0;fontSize=30;" vertex="1" parent="1">
                    <mxGeometry x="1690" y="-90" width="230" height="30" as="geometry"/>
                </mxCell>
                <mxCell id="38" style="edgeStyle=none;html=1;fontSize=30;" edge="1" parent="1" source="40">
                    <mxGeometry relative="1" as="geometry">
                        <mxPoint x="1940" y="120" as="targetPoint"/>
                    </mxGeometry>
                </mxCell>
                <mxCell id="39" style="edgeStyle=none;html=1;entryX=0.5;entryY=0;entryDx=0;entryDy=0;fontSize=15;" edge="1" parent="1" source="40" target="44">
                    <mxGeometry relative="1" as="geometry">
                        <Array as="points">
                            <mxPoint x="1600" y="10"/>
                            <mxPoint x="2000" y="10"/>
                        </Array>
                    </mxGeometry>
                </mxCell>
                <mxCell id="40" value="user" style="rounded=1;whiteSpace=wrap;html=1;fontSize=30;" vertex="1" parent="1">
                    <mxGeometry x="1540" y="90" width="120" height="60" as="geometry"/>
                </mxCell>
                <mxCell id="41" style="edgeStyle=none;html=1;entryX=0.5;entryY=0;entryDx=0;entryDy=0;fontSize=30;" edge="1" parent="1" source="44" target="45">
                    <mxGeometry relative="1" as="geometry"/>
                </mxCell>
                <mxCell id="42" style="edgeStyle=none;html=1;fontSize=15;" edge="1" parent="1" source="44" target="40">
                    <mxGeometry relative="1" as="geometry"/>
                </mxCell>
                <mxCell id="43" style="edgeStyle=none;html=1;entryX=1;entryY=0.5;entryDx=0;entryDy=0;fontSize=15;" edge="1" parent="1" source="44" target="45">
                    <mxGeometry relative="1" as="geometry">
                        <Array as="points">
                            <mxPoint x="2140" y="120"/>
                            <mxPoint x="2140" y="340"/>
                        </Array>
                    </mxGeometry>
                </mxCell>
                <mxCell id="44" value="server" style="rounded=1;whiteSpace=wrap;html=1;fontSize=30;" vertex="1" parent="1">
                    <mxGeometry x="1940" y="90" width="120" height="60" as="geometry"/>
                </mxCell>
                <mxCell id="45" value="DB" style="rounded=1;whiteSpace=wrap;html=1;fontSize=30;" vertex="1" parent="1">
                    <mxGeometry x="1940" y="310" width="120" height="60" as="geometry"/>
                </mxCell>
                <mxCell id="46" value="&lt;font style=&quot;font-size: 15px;&quot;&gt;verify code&lt;/font&gt;" style="text;html=1;strokeColor=none;fillColor=none;align=center;verticalAlign=middle;whiteSpace=wrap;rounded=0;fontSize=30;" vertex="1" parent="1">
                    <mxGeometry x="1850" y="210" width="200" height="30" as="geometry"/>
                </mxCell>
                <mxCell id="47" value="&lt;font style=&quot;font-size: 15px;&quot;&gt;email&lt;/font&gt;" style="text;html=1;strokeColor=none;fillColor=none;align=center;verticalAlign=middle;whiteSpace=wrap;rounded=0;fontSize=30;" vertex="1" parent="1">
                    <mxGeometry x="1610" y="80" width="200" height="30" as="geometry"/>
                </mxCell>
                <mxCell id="48" value="&lt;font style=&quot;font-size: 15px;&quot;&gt;verify code&lt;/font&gt;" style="text;html=1;strokeColor=none;fillColor=none;align=center;verticalAlign=middle;whiteSpace=wrap;rounded=0;fontSize=30;" vertex="1" parent="1">
                    <mxGeometry x="1780" y="130" width="200" height="30" as="geometry"/>
                </mxCell>
                <mxCell id="49" value="&lt;font style=&quot;font-size: 15px;&quot;&gt;email, verify code, password, avatar&lt;/font&gt;" style="text;html=1;strokeColor=none;fillColor=none;align=center;verticalAlign=middle;whiteSpace=wrap;rounded=0;fontSize=30;" vertex="1" parent="1">
                    <mxGeometry x="1680" y="-30" width="260" height="30" as="geometry"/>
                </mxCell>
                <mxCell id="50" value="&lt;span style=&quot;font-size: 15px;&quot;&gt;email, password (delete verify code)&lt;/span&gt;" style="text;html=1;strokeColor=none;fillColor=none;align=center;verticalAlign=middle;whiteSpace=wrap;rounded=0;fontSize=30;" vertex="1" parent="1">
                    <mxGeometry x="2140" y="210" width="200" height="30" as="geometry"/>
                </mxCell>
                <mxCell id="51" value="chat meesages" style="text;html=1;strokeColor=none;fillColor=none;align=center;verticalAlign=middle;whiteSpace=wrap;rounded=0;fontSize=30;" vertex="1" parent="1">
                    <mxGeometry x="2200" y="550" width="230" height="30" as="geometry"/>
                </mxCell>
                <mxCell id="52" style="edgeStyle=none;html=1;fontSize=30;" edge="1" parent="1" source="54">
                    <mxGeometry relative="1" as="geometry">
                        <mxPoint x="2450" y="760" as="targetPoint"/>
                    </mxGeometry>
                </mxCell>
                <mxCell id="53" style="edgeStyle=none;html=1;entryX=0.5;entryY=0;entryDx=0;entryDy=0;fontSize=15;" edge="1" parent="1" source="54" target="57">
                    <mxGeometry relative="1" as="geometry">
                        <Array as="points">
                            <mxPoint x="2110" y="650"/>
                            <mxPoint x="2510" y="650"/>
                        </Array>
                    </mxGeometry>
                </mxCell>
                <mxCell id="54" value="user" style="rounded=1;whiteSpace=wrap;html=1;fontSize=30;" vertex="1" parent="1">
                    <mxGeometry x="2050" y="730" width="120" height="60" as="geometry"/>
                </mxCell>
                <mxCell id="55" style="edgeStyle=none;html=1;entryX=0.5;entryY=0;entryDx=0;entryDy=0;fontSize=30;" edge="1" parent="1" source="57" target="58">
                    <mxGeometry relative="1" as="geometry"/>
                </mxCell>
                <mxCell id="64" style="edgeStyle=none;html=1;entryX=0.5;entryY=1;entryDx=0;entryDy=0;fontSize=15;" edge="1" parent="1" source="57" target="63">
                    <mxGeometry relative="1" as="geometry">
                        <Array as="points">
                            <mxPoint x="2900" y="760"/>
                        </Array>
                    </mxGeometry>
                </mxCell>
                <mxCell id="57" value="server" style="rounded=1;whiteSpace=wrap;html=1;fontSize=30;" vertex="1" parent="1">
                    <mxGeometry x="2450" y="730" width="120" height="60" as="geometry"/>
                </mxCell>
                <mxCell id="58" value="DB" style="rounded=1;whiteSpace=wrap;html=1;fontSize=30;" vertex="1" parent="1">
                    <mxGeometry x="2450" y="950" width="120" height="60" as="geometry"/>
                </mxCell>
                <mxCell id="59" value="&lt;font style=&quot;font-size: 15px;&quot;&gt;save messages&lt;/font&gt;" style="text;html=1;strokeColor=none;fillColor=none;align=center;verticalAlign=middle;whiteSpace=wrap;rounded=0;fontSize=30;" vertex="1" parent="1">
                    <mxGeometry x="2340" y="850" width="200" height="30" as="geometry"/>
                </mxCell>
                <mxCell id="60" value="&lt;span style=&quot;font-size: 15px;&quot;&gt;connect websocket&lt;/span&gt;" style="text;html=1;strokeColor=none;fillColor=none;align=center;verticalAlign=middle;whiteSpace=wrap;rounded=0;fontSize=30;" vertex="1" parent="1">
                    <mxGeometry x="2220" y="720" width="200" height="30" as="geometry"/>
                </mxCell>
                <mxCell id="61" value="&lt;span style=&quot;font-size: 15px;&quot;&gt;send messages ( file audio, photo, video)&lt;/span&gt;" style="text;html=1;strokeColor=none;fillColor=none;align=center;verticalAlign=middle;whiteSpace=wrap;rounded=0;fontSize=30;" vertex="1" parent="1">
                    <mxGeometry x="2150" y="610" width="290" height="30" as="geometry"/>
                </mxCell>
                <mxCell id="62" value="&lt;span style=&quot;font-size: 15px;&quot;&gt;FILE&lt;/span&gt;" style="text;html=1;strokeColor=none;fillColor=none;align=center;verticalAlign=middle;whiteSpace=wrap;rounded=0;fontSize=30;" vertex="1" parent="1">
                    <mxGeometry x="2600" y="710" width="200" height="30" as="geometry"/>
                </mxCell>
                <mxCell id="63" value="storage drive" style="rounded=1;whiteSpace=wrap;html=1;fontSize=15;" vertex="1" parent="1">
                    <mxGeometry x="2840" y="630" width="120" height="60" as="geometry"/>
                </mxCell>
                <mxCell id="65" value="login" style="text;html=1;strokeColor=none;fillColor=none;align=center;verticalAlign=middle;whiteSpace=wrap;rounded=0;fontSize=30;" vertex="1" parent="1">
                    <mxGeometry x="2650" y="-85" width="230" height="30" as="geometry"/>
                </mxCell>
                <mxCell id="67" style="edgeStyle=none;html=1;entryX=0.5;entryY=0;entryDx=0;entryDy=0;fontSize=15;" edge="1" parent="1" source="68" target="72">
                    <mxGeometry relative="1" as="geometry">
                        <Array as="points">
                            <mxPoint x="2560" y="15"/>
                            <mxPoint x="2960" y="15"/>
                        </Array>
                    </mxGeometry>
                </mxCell>
                <mxCell id="68" value="user" style="rounded=1;whiteSpace=wrap;html=1;fontSize=30;" vertex="1" parent="1">
                    <mxGeometry x="2500" y="95" width="120" height="60" as="geometry"/>
                </mxCell>
                <mxCell id="69" style="edgeStyle=none;html=1;entryX=0.5;entryY=0;entryDx=0;entryDy=0;fontSize=30;" edge="1" parent="1" source="72" target="73">
                    <mxGeometry relative="1" as="geometry"/>
                </mxCell>
                <mxCell id="79" style="edgeStyle=none;html=1;entryX=1;entryY=0.5;entryDx=0;entryDy=0;fontSize=15;" edge="1" parent="1" source="72" target="68">
                    <mxGeometry relative="1" as="geometry"/>
                </mxCell>
                <mxCell id="72" value="server" style="rounded=1;whiteSpace=wrap;html=1;fontSize=30;" vertex="1" parent="1">
                    <mxGeometry x="2900" y="95" width="120" height="60" as="geometry"/>
                </mxCell>
                <mxCell id="73" value="DB" style="rounded=1;whiteSpace=wrap;html=1;fontSize=30;" vertex="1" parent="1">
                    <mxGeometry x="2900" y="315" width="120" height="60" as="geometry"/>
                </mxCell>
                <mxCell id="74" value="&lt;font style=&quot;font-size: 15px;&quot;&gt;checkDB&lt;/font&gt;" style="text;html=1;strokeColor=none;fillColor=none;align=center;verticalAlign=middle;whiteSpace=wrap;rounded=0;fontSize=30;" vertex="1" parent="1">
                    <mxGeometry x="2810" y="215" width="200" height="30" as="geometry"/>
                </mxCell>
                <mxCell id="75" value="&lt;span style=&quot;font-size: 15px;&quot;&gt;token, user_id&lt;/span&gt;" style="text;html=1;strokeColor=none;fillColor=none;align=center;verticalAlign=middle;whiteSpace=wrap;rounded=0;fontSize=30;" vertex="1" parent="1">
                    <mxGeometry x="2650" y="90" width="200" height="30" as="geometry"/>
                </mxCell>
                <mxCell id="77" value="&lt;font style=&quot;font-size: 15px;&quot;&gt;email, password&lt;/font&gt;" style="text;html=1;strokeColor=none;fillColor=none;align=center;verticalAlign=middle;whiteSpace=wrap;rounded=0;fontSize=30;" vertex="1" parent="1">
                    <mxGeometry x="2640" y="-25" width="260" height="30" as="geometry"/>
                </mxCell>
                <mxCell id="91" value="wallets" style="text;html=1;strokeColor=none;fillColor=none;align=center;verticalAlign=middle;whiteSpace=wrap;rounded=0;fontSize=30;" vertex="1" parent="1">
                    <mxGeometry x="3440" y="520" width="230" height="30" as="geometry"/>
                </mxCell>
                <mxCell id="92" style="edgeStyle=none;html=1;fontSize=30;" edge="1" parent="1" source="94">
                    <mxGeometry relative="1" as="geometry">
                        <mxPoint x="3690" y="730" as="targetPoint"/>
                    </mxGeometry>
                </mxCell>
                <mxCell id="93" style="edgeStyle=none;html=1;entryX=0.5;entryY=0;entryDx=0;entryDy=0;fontSize=15;" edge="1" parent="1" source="94" target="97">
                    <mxGeometry relative="1" as="geometry">
                        <Array as="points">
                            <mxPoint x="3350" y="620"/>
                            <mxPoint x="3750" y="620"/>
                        </Array>
                    </mxGeometry>
                </mxCell>
                <mxCell id="94" value="user" style="rounded=1;whiteSpace=wrap;html=1;fontSize=30;" vertex="1" parent="1">
                    <mxGeometry x="3290" y="700" width="120" height="60" as="geometry"/>
                </mxCell>
                <mxCell id="95" style="edgeStyle=none;html=1;entryX=0.5;entryY=0;entryDx=0;entryDy=0;fontSize=30;" edge="1" parent="1" source="97" target="98">
                    <mxGeometry relative="1" as="geometry"/>
                </mxCell>
                <mxCell id="97" value="server" style="rounded=1;whiteSpace=wrap;html=1;fontSize=30;" vertex="1" parent="1">
                    <mxGeometry x="3690" y="700" width="120" height="60" as="geometry"/>
                </mxCell>
                <mxCell id="98" value="DB" style="rounded=1;whiteSpace=wrap;html=1;fontSize=30;" vertex="1" parent="1">
                    <mxGeometry x="3690" y="920" width="120" height="60" as="geometry"/>
                </mxCell>
                <mxCell id="99" value="&lt;font style=&quot;font-size: 15px;&quot;&gt;save wallets,&amp;nbsp;transaction&lt;/font&gt;" style="text;html=1;strokeColor=none;fillColor=none;align=center;verticalAlign=middle;whiteSpace=wrap;rounded=0;fontSize=30;" vertex="1" parent="1">
                    <mxGeometry x="3770" y="820" width="200" height="30" as="geometry"/>
                </mxCell>
                <mxCell id="100" value="&lt;span style=&quot;font-size: 15px;&quot;&gt;create wallets&lt;/span&gt;" style="text;html=1;strokeColor=none;fillColor=none;align=center;verticalAlign=middle;whiteSpace=wrap;rounded=0;fontSize=30;" vertex="1" parent="1">
                    <mxGeometry x="3460" y="690" width="200" height="30" as="geometry"/>
                </mxCell>
                <mxCell id="101" value="&lt;span style=&quot;font-size: 15px;&quot;&gt;send moneys&lt;/span&gt;" style="text;html=1;strokeColor=none;fillColor=none;align=center;verticalAlign=middle;whiteSpace=wrap;rounded=0;fontSize=30;" vertex="1" parent="1">
                    <mxGeometry x="3450" y="580" width="200" height="30" as="geometry"/>
                </mxCell>
            </root>
        </mxGraphModel>
    </diagram>
</mxfile>